<svg width="30" height="30" viewBox="0 0 30 30" fill="none" xmlns="http://www.w3.org/2000/svg">
<g clip-path="url(#clip0)">
<path d="M25.4484 23.194C25.0953 22.3705 24.4146 21.7096 23.5809 21.3809L18.4419 19.3545C18.328 19.3095 18.2544 19.2014 18.2544 19.079V17.4788C19.7277 16.3726 20.6503 14.8035 20.997 12.843C22.1179 12.7948 23.0151 11.8682 23.0151 10.7356C23.0151 10.0436 22.6799 9.42872 22.1636 9.04395C22.7895 8.59573 23.1985 7.86306 23.1985 7.03622V6.56838C23.1985 6.03198 22.7621 5.59559 22.2257 5.59559H20.8949C20.5786 3.63936 20.0559 2.02038 19.765 1.21177C19.6131 0.789333 19.3349 0.429645 18.9817 0.198973C18.3688 -0.201437 17.6803 0.0851309 17.073 0.33795C16.7101 0.489056 16.335 0.645317 16.0812 0.606237C15.3645 0.495852 14.6376 0.495852 13.9209 0.606237C13.6674 0.645317 13.2921 0.489056 12.9291 0.33795C12.3218 0.0851309 11.6336 -0.201378 11.0204 0.198973C10.6671 0.429703 10.3889 0.789392 10.2371 1.21177C9.94781 2.01581 9.42401 3.63655 9.10715 5.59559H7.77339C7.23699 5.59559 6.80061 6.03198 6.80061 6.56838V7.03622C6.80061 7.88017 7.2265 8.62626 7.87446 9.07167C7.37814 9.4579 7.05735 10.0595 7.05735 10.7357C7.05735 11.8441 7.9167 12.7549 9.00397 12.8385C9.34966 14.7999 10.2716 16.3694 11.7447 17.4766V19.0792C11.7447 19.2016 11.6711 19.3098 11.5572 19.3546L6.41813 21.3811C5.58455 21.7098 4.90385 22.3707 4.55066 23.1942C3.75371 25.0527 3.34961 27.0202 3.34961 29.0423C3.34961 29.5704 3.77926 30.0001 4.30739 30.0001H25.6918C26.2199 30.0001 26.6495 29.5704 26.6495 29.0423C26.6495 27.02 26.2454 25.0524 25.4484 23.194ZM20.4947 26.7611L21.1677 27.4726C21.3399 27.6546 21.4347 27.8928 21.4347 28.1433V29.1211H18.5479V28.3354C18.5479 27.7441 18.0669 27.2631 17.4756 27.2631H12.5237C11.9324 27.2631 11.4513 27.7441 11.4513 28.3354V29.1211H8.56688V28.1433C8.56688 27.8928 8.66168 27.6546 8.83388 27.4726L9.5068 26.7612C9.9863 26.2543 10.2504 25.5909 10.2504 24.8932V20.8145L11.0233 20.5098L11.0302 20.5071V24.2573C11.0302 25.2132 11.8078 25.9909 12.7637 25.9909H13.298C13.5407 25.9909 13.7375 25.7941 13.7375 25.5514C13.7375 25.3088 13.5407 25.112 13.298 25.112H12.7637C12.2924 25.112 11.9091 24.7286 11.9091 24.2573V20.1592C12.0263 20.1094 12.1321 20.0424 12.2243 19.9619C12.906 20.8033 13.915 21.2858 14.9996 21.2858C16.0842 21.2858 17.0932 20.8033 17.775 19.9619C17.8678 20.043 17.9743 20.1103 18.0925 20.1603V24.2574C18.0925 24.7286 17.709 25.1121 17.2378 25.1121H15.0558C14.8131 25.1121 14.6163 25.3088 14.6163 25.5515C14.6163 25.7942 14.8131 25.9909 15.0558 25.9909H17.2378C18.1936 25.9909 18.9713 25.2133 18.9713 24.2574V20.508L19.7512 20.8155V24.8932C19.7512 25.5909 20.0152 26.2542 20.4947 26.7611ZM17.669 29.121H12.3302V28.3354C12.3302 28.2287 12.4169 28.1419 12.5237 28.1419H17.4756C17.5822 28.1419 17.669 28.2286 17.669 28.3354V29.121ZM15.0011 18.6139C15.8175 18.6138 16.6339 18.4216 17.3755 18.0389V19.0557C17.3673 19.0645 17.3592 19.0733 17.3516 19.0829L17.1101 19.3873C16.5959 20.0352 15.8267 20.4068 14.9996 20.4068C14.1724 20.4068 13.4031 20.0352 12.8891 19.3873L12.6436 19.078C12.6372 19.07 12.6304 19.0627 12.6236 19.0552V18.0373C13.3661 18.4213 14.1833 18.6139 15.0011 18.6139ZM21.1133 11.9475C21.1776 11.1875 21.1637 10.3762 21.0709 9.51725C21.6714 9.59846 22.1363 10.1132 22.1363 10.7356C22.1363 11.3433 21.6932 11.8482 21.1133 11.9475ZM7.67947 6.56826C7.67947 6.51647 7.72159 6.47434 7.77339 6.47434H12.2994C12.5421 6.47434 12.7388 6.27759 12.7388 6.03491C12.7388 5.79222 12.5421 5.59548 12.2994 5.59548H9.99802C10.3053 3.76967 10.7922 2.26494 11.0641 1.50906C11.1517 1.26544 11.3069 1.06143 11.5011 0.934639C11.7249 0.788396 12.1654 0.971785 12.5914 1.14914C13.0664 1.34688 13.5574 1.55125 14.0548 1.47467C14.6826 1.37794 15.3195 1.37794 15.9474 1.47467C16.4448 1.55131 16.9358 1.34682 17.4108 1.14914C17.8368 0.971844 18.2774 0.788396 18.5011 0.934639C18.6953 1.06143 18.8504 1.26544 18.9381 1.50912C19.1587 2.12268 19.6836 3.69614 20.0042 5.59548H14.0571C13.8144 5.59548 13.6177 5.79222 13.6177 6.03491C13.6177 6.27759 13.8144 6.47434 14.0571 6.47434H22.2257C22.2775 6.47434 22.3197 6.51647 22.3197 6.56826V7.03611C22.3197 7.91274 21.6065 8.62591 20.7299 8.62591H9.26927C8.39263 8.62591 7.67947 7.91274 7.67947 7.03611V6.56826ZM7.93621 10.7356C7.93621 10.1382 8.36422 9.63924 8.92962 9.52826C8.83839 10.3778 8.8248 11.1805 8.88737 11.9331C8.34318 11.806 7.93621 11.3179 7.93621 10.7356ZM10.0716 13.5671C9.72505 12.3994 9.63997 11.0333 9.81686 9.50477H20.1853C20.3633 11.0437 20.2759 12.418 19.9236 13.5906C19.476 15.0804 18.5922 16.252 17.2969 17.0729C15.9023 17.9567 14.0998 17.9566 12.7053 17.0729C11.4032 16.2477 10.5171 15.0682 10.0716 13.5671ZM4.22853 29.0422C4.22853 27.1398 4.60867 25.2888 5.35845 23.5404C5.61983 22.9309 6.12365 22.4418 6.74055 22.1985L9.37145 21.1611V24.8931C9.37145 25.3652 9.19275 25.8142 8.86827 26.1571L8.19536 26.8686C7.86819 27.2144 7.68796 27.6671 7.68796 28.1433V29.121H4.30739C4.26392 29.121 4.22853 29.0856 4.22853 29.0422ZM25.6918 29.121H22.3135V28.1433C22.3135 27.6672 22.1333 27.2145 21.8062 26.8686L21.1332 26.1571C20.8087 25.8142 20.6301 25.3652 20.6301 24.8931V21.162L23.2586 22.1985C23.8757 22.4418 24.3794 22.9309 24.6408 23.5404C25.3906 25.2888 25.7707 27.1398 25.7707 29.0422C25.7707 29.0857 25.7353 29.121 25.6918 29.121Z" fill="black" fill-opacity="0.6"/>
</g>
<defs>
<clipPath id="clip0">
<rect width="30" height="30" fill="white"/>
</clipPath>
</defs>
</svg>
