<svg width="30" height="30" viewBox="0 0 30 30" fill="none" xmlns="http://www.w3.org/2000/svg">
<g clip-path="url(#clip0)">
<mask id="path-1-outside-1" maskUnits="userSpaceOnUse" x="2.3501" y="-1" width="25" height="32" fill="black">
<rect fill="white" x="2.3501" y="-1" width="25" height="32"/>
<path d="M25.4489 23.194C25.0958 22.3705 24.4151 21.7096 23.5814 21.3809L18.4424 19.3545C18.3285 19.3095 18.2549 19.2014 18.2549 19.079V17.4788C19.7282 16.3726 20.6508 14.8035 20.9975 12.843C22.1184 12.7948 23.0156 11.8682 23.0156 10.7356C23.0156 10.0436 22.6804 9.42872 22.1641 9.04395C22.79 8.59573 23.199 7.86306 23.199 7.03622V6.56838C23.199 6.03198 22.7626 5.59559 22.2262 5.59559H20.8954C20.5791 3.63936 20.0564 2.02038 19.7655 1.21177C19.6136 0.789333 19.3354 0.429645 18.9822 0.198973C18.3693 -0.201437 17.6808 0.0851309 17.0735 0.33795C16.7106 0.489056 16.3355 0.645317 16.0817 0.606237C15.365 0.495852 14.6381 0.495852 13.9214 0.606237C13.6679 0.645317 13.2926 0.489056 12.9296 0.33795C12.3223 0.0851309 11.6341 -0.201378 11.0209 0.198973C10.6676 0.429703 10.3894 0.789392 10.2376 1.21177C9.9483 2.01581 9.4245 3.63655 9.10764 5.59559H7.77388C7.23748 5.59559 6.80109 6.03198 6.80109 6.56838V7.03622C6.80109 7.88017 7.22699 8.62626 7.87495 9.07167C7.37862 9.4579 7.05784 10.0595 7.05784 10.7357C7.05784 11.8441 7.91719 12.7549 9.00446 12.8385C9.35014 14.7999 10.2721 16.3694 11.7452 17.4766V19.0792C11.7452 19.2016 11.6716 19.3098 11.5577 19.3546L6.41861 21.3811C5.58504 21.7098 4.90434 22.3707 4.55115 23.1942C3.7542 25.0527 3.3501 27.0202 3.3501 29.0423C3.3501 29.5704 3.77974 30.0001 4.30788 30.0001H25.6923C26.2204 30.0001 26.65 29.5704 26.65 29.0423C26.65 27.02 26.2459 25.0524 25.4489 23.194ZM20.4952 26.7611L21.1682 27.4726C21.3404 27.6546 21.4352 27.8928 21.4352 28.1433V29.1211H18.5484V28.3354C18.5484 27.7441 18.0673 27.2631 17.476 27.2631H12.5242C11.9329 27.2631 11.4518 27.7441 11.4518 28.3354V29.1211H8.56737V28.1433C8.56737 27.8928 8.66217 27.6546 8.83437 27.4726L9.50729 26.7612C9.98679 26.2543 10.2509 25.5909 10.2509 24.8932V20.8145L11.0238 20.5098L11.0307 20.5071V24.2573C11.0307 25.2132 11.8083 25.9909 12.7642 25.9909H13.2985C13.5412 25.9909 13.7379 25.7941 13.7379 25.5514C13.7379 25.3088 13.5412 25.112 13.2985 25.112H12.7642C12.2929 25.112 11.9096 24.7286 11.9096 24.2573V20.1592C12.0268 20.1094 12.1326 20.0424 12.2248 19.9619C12.9065 20.8033 13.9155 21.2858 15.0001 21.2858C16.0847 21.2858 17.0937 20.8033 17.7754 19.9619C17.8682 20.043 17.9748 20.1103 18.0929 20.1603V24.2574C18.0929 24.7286 17.7095 25.1121 17.2383 25.1121H15.0562C14.8136 25.1121 14.6168 25.3088 14.6168 25.5515C14.6168 25.7942 14.8136 25.9909 15.0562 25.9909H17.2383C18.1941 25.9909 18.9718 25.2133 18.9718 24.2574V20.508L19.7517 20.8155V24.8932C19.7516 25.5909 20.0157 26.2542 20.4952 26.7611ZM17.6695 29.121H12.3307V28.3354C12.3307 28.2287 12.4174 28.1419 12.5242 28.1419H17.476C17.5827 28.1419 17.6695 28.2286 17.6695 28.3354V29.121ZM15.0016 18.6139C15.818 18.6138 16.6344 18.4216 17.376 18.0389V19.0557C17.3678 19.0645 17.3597 19.0733 17.3521 19.0829L17.1106 19.3873C16.5964 20.0352 15.8272 20.4068 15.0001 20.4068C14.1729 20.4068 13.4036 20.0352 12.8896 19.3873L12.6441 19.078C12.6377 19.07 12.6309 19.0627 12.6241 19.0552V18.0373C13.3666 18.4213 14.1838 18.6139 15.0016 18.6139ZM21.1138 11.9475C21.178 11.1875 21.1642 10.3762 21.0713 9.51725C21.6719 9.59846 22.1368 10.1132 22.1368 10.7356C22.1368 11.3433 21.6936 11.8482 21.1138 11.9475ZM7.67996 6.56826C7.67996 6.51647 7.72208 6.47434 7.77388 6.47434H12.2999C12.5426 6.47434 12.7393 6.27759 12.7393 6.03491C12.7393 5.79222 12.5426 5.59548 12.2999 5.59548H9.99851C10.3058 3.76967 10.7927 2.26494 11.0646 1.50906C11.1522 1.26544 11.3074 1.06143 11.5015 0.934639C11.7254 0.788396 12.1659 0.971785 12.5919 1.14914C13.0669 1.34688 13.5579 1.55125 14.0553 1.47467C14.6831 1.37794 15.32 1.37794 15.9479 1.47467C16.4453 1.55131 16.9363 1.34682 17.4113 1.14914C17.8373 0.971844 18.2779 0.788396 18.5016 0.934639C18.6958 1.06143 18.8509 1.26544 18.9386 1.50912C19.1592 2.12268 19.6841 3.69614 20.0047 5.59548H14.0576C13.8149 5.59548 13.6182 5.79222 13.6182 6.03491C13.6182 6.27759 13.8149 6.47434 14.0576 6.47434H22.2262C22.278 6.47434 22.3202 6.51647 22.3202 6.56826V7.03611C22.3202 7.91274 21.607 8.62591 20.7303 8.62591H9.26976C8.39312 8.62591 7.67996 7.91274 7.67996 7.03611V6.56826ZM7.9367 10.7356C7.9367 10.1382 8.36471 9.63924 8.93011 9.52826C8.83888 10.3778 8.82529 11.1805 8.88786 11.9331C8.34367 11.806 7.9367 11.3179 7.9367 10.7356ZM10.072 13.5671C9.72554 12.3994 9.64046 11.0333 9.81735 9.50477H20.1857C20.3637 11.0437 20.2764 12.418 19.9241 13.5906C19.4764 15.0804 18.5927 16.252 17.2974 17.0729C15.9028 17.9567 14.1003 17.9566 12.7058 17.0729C11.4037 16.2477 10.5176 15.0682 10.072 13.5671ZM4.22902 29.0422C4.22902 27.1398 4.60915 25.2888 5.35894 23.5404C5.62031 22.9309 6.12414 22.4418 6.74104 22.1985L9.37194 21.1611V24.8931C9.37194 25.3652 9.19324 25.8142 8.86876 26.1571L8.19585 26.8686C7.86868 27.2144 7.68845 27.6671 7.68845 28.1433V29.121H4.30788C4.26441 29.121 4.22902 29.0856 4.22902 29.0422ZM25.6923 29.121H22.314V28.1433C22.314 27.6672 22.1338 27.2145 21.8067 26.8686L21.1337 26.1571C20.8092 25.8142 20.6306 25.3652 20.6306 24.8931V21.162L23.2591 22.1985C23.8761 22.4418 24.3799 22.9309 24.6413 23.5404C25.3911 25.2888 25.7712 27.1398 25.7712 29.0422C25.7711 29.0857 25.7358 29.121 25.6923 29.121Z"/>
</mask>
<path d="M25.4489 23.194C25.0958 22.3705 24.4151 21.7096 23.5814 21.3809L18.4424 19.3545C18.3285 19.3095 18.2549 19.2014 18.2549 19.079V17.4788C19.7282 16.3726 20.6508 14.8035 20.9975 12.843C22.1184 12.7948 23.0156 11.8682 23.0156 10.7356C23.0156 10.0436 22.6804 9.42872 22.1641 9.04395C22.79 8.59573 23.199 7.86306 23.199 7.03622V6.56838C23.199 6.03198 22.7626 5.59559 22.2262 5.59559H20.8954C20.5791 3.63936 20.0564 2.02038 19.7655 1.21177C19.6136 0.789333 19.3354 0.429645 18.9822 0.198973C18.3693 -0.201437 17.6808 0.0851309 17.0735 0.33795C16.7106 0.489056 16.3355 0.645317 16.0817 0.606237C15.365 0.495852 14.6381 0.495852 13.9214 0.606237C13.6679 0.645317 13.2926 0.489056 12.9296 0.33795C12.3223 0.0851309 11.6341 -0.201378 11.0209 0.198973C10.6676 0.429703 10.3894 0.789392 10.2376 1.21177C9.9483 2.01581 9.4245 3.63655 9.10764 5.59559H7.77388C7.23748 5.59559 6.80109 6.03198 6.80109 6.56838V7.03622C6.80109 7.88017 7.22699 8.62626 7.87495 9.07167C7.37862 9.4579 7.05784 10.0595 7.05784 10.7357C7.05784 11.8441 7.91719 12.7549 9.00446 12.8385C9.35014 14.7999 10.2721 16.3694 11.7452 17.4766V19.0792C11.7452 19.2016 11.6716 19.3098 11.5577 19.3546L6.41861 21.3811C5.58504 21.7098 4.90434 22.3707 4.55115 23.1942C3.7542 25.0527 3.3501 27.0202 3.3501 29.0423C3.3501 29.5704 3.77974 30.0001 4.30788 30.0001H25.6923C26.2204 30.0001 26.65 29.5704 26.65 29.0423C26.65 27.02 26.2459 25.0524 25.4489 23.194ZM20.4952 26.7611L21.1682 27.4726C21.3404 27.6546 21.4352 27.8928 21.4352 28.1433V29.1211H18.5484V28.3354C18.5484 27.7441 18.0673 27.2631 17.476 27.2631H12.5242C11.9329 27.2631 11.4518 27.7441 11.4518 28.3354V29.1211H8.56737V28.1433C8.56737 27.8928 8.66217 27.6546 8.83437 27.4726L9.50729 26.7612C9.98679 26.2543 10.2509 25.5909 10.2509 24.8932V20.8145L11.0238 20.5098L11.0307 20.5071V24.2573C11.0307 25.2132 11.8083 25.9909 12.7642 25.9909H13.2985C13.5412 25.9909 13.7379 25.7941 13.7379 25.5514C13.7379 25.3088 13.5412 25.112 13.2985 25.112H12.7642C12.2929 25.112 11.9096 24.7286 11.9096 24.2573V20.1592C12.0268 20.1094 12.1326 20.0424 12.2248 19.9619C12.9065 20.8033 13.9155 21.2858 15.0001 21.2858C16.0847 21.2858 17.0937 20.8033 17.7754 19.9619C17.8682 20.043 17.9748 20.1103 18.0929 20.1603V24.2574C18.0929 24.7286 17.7095 25.1121 17.2383 25.1121H15.0562C14.8136 25.1121 14.6168 25.3088 14.6168 25.5515C14.6168 25.7942 14.8136 25.9909 15.0562 25.9909H17.2383C18.1941 25.9909 18.9718 25.2133 18.9718 24.2574V20.508L19.7517 20.8155V24.8932C19.7516 25.5909 20.0157 26.2542 20.4952 26.7611ZM17.6695 29.121H12.3307V28.3354C12.3307 28.2287 12.4174 28.1419 12.5242 28.1419H17.476C17.5827 28.1419 17.6695 28.2286 17.6695 28.3354V29.121ZM15.0016 18.6139C15.818 18.6138 16.6344 18.4216 17.376 18.0389V19.0557C17.3678 19.0645 17.3597 19.0733 17.3521 19.0829L17.1106 19.3873C16.5964 20.0352 15.8272 20.4068 15.0001 20.4068C14.1729 20.4068 13.4036 20.0352 12.8896 19.3873L12.6441 19.078C12.6377 19.07 12.6309 19.0627 12.6241 19.0552V18.0373C13.3666 18.4213 14.1838 18.6139 15.0016 18.6139ZM21.1138 11.9475C21.178 11.1875 21.1642 10.3762 21.0713 9.51725C21.6719 9.59846 22.1368 10.1132 22.1368 10.7356C22.1368 11.3433 21.6936 11.8482 21.1138 11.9475ZM7.67996 6.56826C7.67996 6.51647 7.72208 6.47434 7.77388 6.47434H12.2999C12.5426 6.47434 12.7393 6.27759 12.7393 6.03491C12.7393 5.79222 12.5426 5.59548 12.2999 5.59548H9.99851C10.3058 3.76967 10.7927 2.26494 11.0646 1.50906C11.1522 1.26544 11.3074 1.06143 11.5015 0.934639C11.7254 0.788396 12.1659 0.971785 12.5919 1.14914C13.0669 1.34688 13.5579 1.55125 14.0553 1.47467C14.6831 1.37794 15.32 1.37794 15.9479 1.47467C16.4453 1.55131 16.9363 1.34682 17.4113 1.14914C17.8373 0.971844 18.2779 0.788396 18.5016 0.934639C18.6958 1.06143 18.8509 1.26544 18.9386 1.50912C19.1592 2.12268 19.6841 3.69614 20.0047 5.59548H14.0576C13.8149 5.59548 13.6182 5.79222 13.6182 6.03491C13.6182 6.27759 13.8149 6.47434 14.0576 6.47434H22.2262C22.278 6.47434 22.3202 6.51647 22.3202 6.56826V7.03611C22.3202 7.91274 21.607 8.62591 20.7303 8.62591H9.26976C8.39312 8.62591 7.67996 7.91274 7.67996 7.03611V6.56826ZM7.9367 10.7356C7.9367 10.1382 8.36471 9.63924 8.93011 9.52826C8.83888 10.3778 8.82529 11.1805 8.88786 11.9331C8.34367 11.806 7.9367 11.3179 7.9367 10.7356ZM10.072 13.5671C9.72554 12.3994 9.64046 11.0333 9.81735 9.50477H20.1857C20.3637 11.0437 20.2764 12.418 19.9241 13.5906C19.4764 15.0804 18.5927 16.252 17.2974 17.0729C15.9028 17.9567 14.1003 17.9566 12.7058 17.0729C11.4037 16.2477 10.5176 15.0682 10.072 13.5671ZM4.22902 29.0422C4.22902 27.1398 4.60915 25.2888 5.35894 23.5404C5.62031 22.9309 6.12414 22.4418 6.74104 22.1985L9.37194 21.1611V24.8931C9.37194 25.3652 9.19324 25.8142 8.86876 26.1571L8.19585 26.8686C7.86868 27.2144 7.68845 27.6671 7.68845 28.1433V29.121H4.30788C4.26441 29.121 4.22902 29.0856 4.22902 29.0422ZM25.6923 29.121H22.314V28.1433C22.314 27.6672 22.1338 27.2145 21.8067 26.8686L21.1337 26.1571C20.8092 25.8142 20.6306 25.3652 20.6306 24.8931V21.162L23.2591 22.1985C23.8761 22.4418 24.3799 22.9309 24.6413 23.5404C25.3911 25.2888 25.7712 27.1398 25.7712 29.0422C25.7711 29.0857 25.7358 29.121 25.6923 29.121Z" fill="#754C29"/>
<path d="M25.4489 23.194C25.0958 22.3705 24.4151 21.7096 23.5814 21.3809L18.4424 19.3545C18.3285 19.3095 18.2549 19.2014 18.2549 19.079V17.4788C19.7282 16.3726 20.6508 14.8035 20.9975 12.843C22.1184 12.7948 23.0156 11.8682 23.0156 10.7356C23.0156 10.0436 22.6804 9.42872 22.1641 9.04395C22.79 8.59573 23.199 7.86306 23.199 7.03622V6.56838C23.199 6.03198 22.7626 5.59559 22.2262 5.59559H20.8954C20.5791 3.63936 20.0564 2.02038 19.7655 1.21177C19.6136 0.789333 19.3354 0.429645 18.9822 0.198973C18.3693 -0.201437 17.6808 0.0851309 17.0735 0.33795C16.7106 0.489056 16.3355 0.645317 16.0817 0.606237C15.365 0.495852 14.6381 0.495852 13.9214 0.606237C13.6679 0.645317 13.2926 0.489056 12.9296 0.33795C12.3223 0.0851309 11.6341 -0.201378 11.0209 0.198973C10.6676 0.429703 10.3894 0.789392 10.2376 1.21177C9.9483 2.01581 9.4245 3.63655 9.10764 5.59559H7.77388C7.23748 5.59559 6.80109 6.03198 6.80109 6.56838V7.03622C6.80109 7.88017 7.22699 8.62626 7.87495 9.07167C7.37862 9.4579 7.05784 10.0595 7.05784 10.7357C7.05784 11.8441 7.91719 12.7549 9.00446 12.8385C9.35014 14.7999 10.2721 16.3694 11.7452 17.4766V19.0792C11.7452 19.2016 11.6716 19.3098 11.5577 19.3546L6.41861 21.3811C5.58504 21.7098 4.90434 22.3707 4.55115 23.1942C3.7542 25.0527 3.3501 27.0202 3.3501 29.0423C3.3501 29.5704 3.77974 30.0001 4.30788 30.0001H25.6923C26.2204 30.0001 26.65 29.5704 26.65 29.0423C26.65 27.02 26.2459 25.0524 25.4489 23.194ZM20.4952 26.7611L21.1682 27.4726C21.3404 27.6546 21.4352 27.8928 21.4352 28.1433V29.1211H18.5484V28.3354C18.5484 27.7441 18.0673 27.2631 17.476 27.2631H12.5242C11.9329 27.2631 11.4518 27.7441 11.4518 28.3354V29.1211H8.56737V28.1433C8.56737 27.8928 8.66217 27.6546 8.83437 27.4726L9.50729 26.7612C9.98679 26.2543 10.2509 25.5909 10.2509 24.8932V20.8145L11.0238 20.5098L11.0307 20.5071V24.2573C11.0307 25.2132 11.8083 25.9909 12.7642 25.9909H13.2985C13.5412 25.9909 13.7379 25.7941 13.7379 25.5514C13.7379 25.3088 13.5412 25.112 13.2985 25.112H12.7642C12.2929 25.112 11.9096 24.7286 11.9096 24.2573V20.1592C12.0268 20.1094 12.1326 20.0424 12.2248 19.9619C12.9065 20.8033 13.9155 21.2858 15.0001 21.2858C16.0847 21.2858 17.0937 20.8033 17.7754 19.9619C17.8682 20.043 17.9748 20.1103 18.0929 20.1603V24.2574C18.0929 24.7286 17.7095 25.1121 17.2383 25.1121H15.0562C14.8136 25.1121 14.6168 25.3088 14.6168 25.5515C14.6168 25.7942 14.8136 25.9909 15.0562 25.9909H17.2383C18.1941 25.9909 18.9718 25.2133 18.9718 24.2574V20.508L19.7517 20.8155V24.8932C19.7516 25.5909 20.0157 26.2542 20.4952 26.7611ZM17.6695 29.121H12.3307V28.3354C12.3307 28.2287 12.4174 28.1419 12.5242 28.1419H17.476C17.5827 28.1419 17.6695 28.2286 17.6695 28.3354V29.121ZM15.0016 18.6139C15.818 18.6138 16.6344 18.4216 17.376 18.0389V19.0557C17.3678 19.0645 17.3597 19.0733 17.3521 19.0829L17.1106 19.3873C16.5964 20.0352 15.8272 20.4068 15.0001 20.4068C14.1729 20.4068 13.4036 20.0352 12.8896 19.3873L12.6441 19.078C12.6377 19.07 12.6309 19.0627 12.6241 19.0552V18.0373C13.3666 18.4213 14.1838 18.6139 15.0016 18.6139ZM21.1138 11.9475C21.178 11.1875 21.1642 10.3762 21.0713 9.51725C21.6719 9.59846 22.1368 10.1132 22.1368 10.7356C22.1368 11.3433 21.6936 11.8482 21.1138 11.9475ZM7.67996 6.56826C7.67996 6.51647 7.72208 6.47434 7.77388 6.47434H12.2999C12.5426 6.47434 12.7393 6.27759 12.7393 6.03491C12.7393 5.79222 12.5426 5.59548 12.2999 5.59548H9.99851C10.3058 3.76967 10.7927 2.26494 11.0646 1.50906C11.1522 1.26544 11.3074 1.06143 11.5015 0.934639C11.7254 0.788396 12.1659 0.971785 12.5919 1.14914C13.0669 1.34688 13.5579 1.55125 14.0553 1.47467C14.6831 1.37794 15.32 1.37794 15.9479 1.47467C16.4453 1.55131 16.9363 1.34682 17.4113 1.14914C17.8373 0.971844 18.2779 0.788396 18.5016 0.934639C18.6958 1.06143 18.8509 1.26544 18.9386 1.50912C19.1592 2.12268 19.6841 3.69614 20.0047 5.59548H14.0576C13.8149 5.59548 13.6182 5.79222 13.6182 6.03491C13.6182 6.27759 13.8149 6.47434 14.0576 6.47434H22.2262C22.278 6.47434 22.3202 6.51647 22.3202 6.56826V7.03611C22.3202 7.91274 21.607 8.62591 20.7303 8.62591H9.26976C8.39312 8.62591 7.67996 7.91274 7.67996 7.03611V6.56826ZM7.9367 10.7356C7.9367 10.1382 8.36471 9.63924 8.93011 9.52826C8.83888 10.3778 8.82529 11.1805 8.88786 11.9331C8.34367 11.806 7.9367 11.3179 7.9367 10.7356ZM10.072 13.5671C9.72554 12.3994 9.64046 11.0333 9.81735 9.50477H20.1857C20.3637 11.0437 20.2764 12.418 19.9241 13.5906C19.4764 15.0804 18.5927 16.252 17.2974 17.0729C15.9028 17.9567 14.1003 17.9566 12.7058 17.0729C11.4037 16.2477 10.5176 15.0682 10.072 13.5671ZM4.22902 29.0422C4.22902 27.1398 4.60915 25.2888 5.35894 23.5404C5.62031 22.9309 6.12414 22.4418 6.74104 22.1985L9.37194 21.1611V24.8931C9.37194 25.3652 9.19324 25.8142 8.86876 26.1571L8.19585 26.8686C7.86868 27.2144 7.68845 27.6671 7.68845 28.1433V29.121H4.30788C4.26441 29.121 4.22902 29.0856 4.22902 29.0422ZM25.6923 29.121H22.314V28.1433C22.314 27.6672 22.1338 27.2145 21.8067 26.8686L21.1337 26.1571C20.8092 25.8142 20.6306 25.3652 20.6306 24.8931V21.162L23.2591 22.1985C23.8761 22.4418 24.3799 22.9309 24.6413 23.5404C25.3911 25.2888 25.7712 27.1398 25.7712 29.0422C25.7711 29.0857 25.7358 29.121 25.6923 29.121Z" stroke="#754C29" stroke-width="0.6" mask="url(#path-1-outside-1)"/>
</g>
<defs>
<clipPath id="clip0">
<rect width="30" height="30" fill="white"/>
</clipPath>
</defs>
</svg>
