<svg width="46" height="46" viewBox="0 0 46 46" fill="none" xmlns="http://www.w3.org/2000/svg">
<g clip-path="url(#clip0)">
<path d="M38.708 35.2781C38.1709 34.0255 37.1356 33.0204 35.8676 32.5203L28.0511 29.4381C27.8778 29.3698 27.7659 29.2054 27.7659 29.0192V26.5853C30.0068 24.9027 31.41 22.5162 31.9374 19.5342C33.6423 19.4609 35.007 18.0515 35.007 16.3289C35.007 15.2763 34.4971 14.3411 33.7117 13.7559C34.6638 13.0741 35.2859 11.9597 35.2859 10.7021V9.9905C35.2859 9.17464 34.6222 8.5109 33.8063 8.5109H31.7821C31.3011 5.53547 30.506 3.073 30.0636 1.84311C29.8325 1.20058 29.4094 0.65349 28.8721 0.302638C27.9398 -0.306385 26.8927 0.129484 25.969 0.514022C25.417 0.743854 24.8465 0.981528 24.4605 0.922087C23.3703 0.754191 22.2648 0.754191 21.1746 0.922087C20.789 0.981528 20.2182 0.743854 19.6661 0.514022C18.7425 0.129484 17.6956 -0.306296 16.7629 0.302638C16.2256 0.653579 15.8025 1.20067 15.5715 1.84311C15.1316 3.06605 14.3349 5.5312 13.8529 8.5109H11.8243C11.0084 8.5109 10.3447 9.17464 10.3447 9.9905V10.7021C10.3447 11.9857 10.9925 13.1205 11.978 13.798C11.2231 14.3855 10.7352 15.3005 10.7352 16.329C10.7352 18.0148 12.0423 19.4001 13.696 19.5273C14.2218 22.5106 15.624 24.8979 17.8646 26.582V29.0195C17.8646 29.2056 17.7527 29.3702 17.5795 29.4384L9.76292 32.5206C8.49505 33.0206 7.4597 34.0258 6.9225 35.2784C5.71034 38.1051 5.0957 41.0977 5.0957 44.1734C5.0957 44.9766 5.7492 45.6301 6.55249 45.6301H39.0782C39.8814 45.6301 40.5349 44.9766 40.5349 44.1734C40.5349 41.0974 39.9202 38.1047 38.708 35.2781ZM31.1734 40.7036L32.197 41.7858C32.4589 42.0626 32.6031 42.4249 32.6031 42.806V44.2932H28.2123V43.0982C28.2123 42.1988 27.4806 41.4671 26.5813 41.4671H19.0495C18.1501 41.4671 17.4184 42.1987 17.4184 43.0982V44.2932H13.0312V42.806C13.0312 42.4249 13.1754 42.0627 13.4373 41.7858L14.4608 40.7037C15.1901 39.9328 15.5918 38.9237 15.5918 37.8625V31.6589L16.7674 31.1953L16.7779 31.1912V36.8954C16.7779 38.3493 17.9607 39.5321 19.4146 39.5321H20.2273C20.5964 39.5321 20.8956 39.2329 20.8956 38.8637C20.8956 38.4946 20.5964 38.1954 20.2273 38.1954H19.4146C18.6977 38.1954 18.1147 37.6123 18.1147 36.8954V30.6622C18.293 30.5863 18.4538 30.4846 18.5941 30.362C19.631 31.6418 21.1656 32.3757 22.8154 32.3757C24.465 32.3757 25.9998 31.6418 27.0366 30.362C27.1778 30.4854 27.3399 30.5878 27.5196 30.6638V36.8955C27.5196 37.6123 26.9364 38.1955 26.2196 38.1955H22.9007C22.5316 38.1955 22.2324 38.4947 22.2324 38.8638C22.2324 39.2329 22.5316 39.5322 22.9007 39.5322H26.2196C27.6735 39.5322 28.8563 38.3494 28.8563 36.8955V31.1927L30.0425 31.6604V37.8626C30.0425 38.9237 30.4441 39.9327 31.1734 40.7036ZM26.8755 44.2931H18.7551V43.0981C18.7551 42.9358 18.8871 42.8038 19.0495 42.8038H26.5813C26.7435 42.8038 26.8755 42.9357 26.8755 43.0981V44.2931ZM22.8176 28.3117C24.0594 28.3116 25.3011 28.0193 26.4291 27.4371V28.9837C26.4167 28.9971 26.4043 29.0106 26.3928 29.0251L26.0254 29.4881C25.2434 30.4736 24.0733 31.0388 22.8153 31.0388C21.5572 31.0388 20.3871 30.4736 19.6052 29.4881L19.2319 29.0177C19.2222 29.0055 19.2118 28.9943 19.2014 28.983V27.4348C20.3308 28.0188 21.5738 28.3118 22.8176 28.3117ZM32.1142 18.1721C32.212 17.0162 32.191 15.7822 32.0497 14.4757C32.9632 14.5993 33.6702 15.3821 33.6702 16.3289C33.6702 17.2531 32.9962 18.0212 32.1142 18.1721ZM11.6814 9.99032C11.6814 9.91154 11.7455 9.84747 11.8243 9.84747H18.7083C19.0775 9.84747 19.3767 9.54822 19.3767 9.1791C19.3767 8.80997 19.0775 8.51072 18.7083 8.51072H15.2079C15.6754 5.73367 16.4159 3.44498 16.8295 2.29528C16.9627 1.92474 17.1988 1.61443 17.494 1.42159C17.8345 1.19915 18.5045 1.47809 19.1524 1.74784C19.8749 2.04861 20.6218 2.35945 21.3783 2.24297C22.3333 2.09584 23.3019 2.09584 24.2569 2.24297C25.0134 2.35954 25.7603 2.04852 26.4828 1.74784C27.1308 1.47817 27.8008 1.19915 28.1412 1.42159C28.4365 1.61443 28.6725 1.92474 28.8058 2.29537C29.1414 3.2286 29.9397 5.62183 30.4274 8.51072H21.3818C21.0127 8.51072 20.7135 8.80997 20.7135 9.1791C20.7135 9.54822 21.0127 9.84747 21.3818 9.84747H33.8063C33.8851 9.84747 33.9492 9.91154 33.9492 9.99032V10.7019C33.9492 12.0353 32.8644 13.12 31.5311 13.12H14.0995C12.7661 13.12 11.6814 12.0353 11.6814 10.7019V9.99032ZM12.0719 16.3288C12.0719 15.4202 12.7229 14.6613 13.5829 14.4925C13.4441 15.7847 13.4235 17.0055 13.5186 18.1503C12.6909 17.9569 12.0719 17.2146 12.0719 16.3288ZM15.3198 20.6356C14.7927 18.8595 14.6633 16.7816 14.9324 14.4568H30.7027C30.9735 16.7974 30.8406 18.8877 30.3047 20.6713C29.6239 22.9374 28.2797 24.7193 26.3095 25.9679C24.1883 27.3122 21.4468 27.312 19.3257 25.9679C17.3452 24.7127 15.9974 22.9187 15.3198 20.6356ZM6.43254 44.1731C6.43254 41.2797 7.01073 38.4642 8.15115 35.805C8.5487 34.8779 9.31502 34.134 10.2533 33.7639L14.2549 32.186V37.8624C14.2549 38.5805 13.9831 39.2633 13.4896 39.785L12.4661 40.8671C11.9685 41.3931 11.6943 42.0816 11.6943 42.8059V44.2931H6.55249C6.48637 44.2931 6.43254 44.2393 6.43254 44.1731ZM39.0782 44.2931H33.9398V42.8059C33.9398 42.0817 33.6658 41.3932 33.1681 40.8672L32.1445 39.785C31.651 39.2633 31.3793 38.5805 31.3793 37.8624V32.1874L35.3773 33.7639C36.3158 34.134 37.082 34.8779 37.4796 35.805C38.62 38.4642 39.1982 41.2797 39.1982 44.1732C39.1981 44.2393 39.1443 44.2931 39.0782 44.2931Z" fill="white"/>
</g>
<defs>
<clipPath id="clip0">
<rect width="45.63" height="45.63" fill="white"/>
</clipPath>
</defs>
</svg>
