<svg width="48" height="47" viewBox="0 0 48 47" fill="none" xmlns="http://www.w3.org/2000/svg">
<path d="M29.6117 13.4268C29.6116 12.2727 29.269 11.1446 28.6272 10.1852C27.9855 9.22573 27.0735 8.47799 26.0065 8.0365C24.9395 7.595 23.7654 7.47956 22.6328 7.70479C21.5002 7.93001 20.4598 8.48577 19.6432 9.30183C18.8266 10.1179 18.2706 11.1576 18.0453 12.2895C17.82 13.4214 17.9357 14.5946 18.3777 15.6607C18.8197 16.7269 19.5682 17.6382 20.5285 18.2793C21.4887 18.9204 22.6176 19.2626 23.7725 19.2626C24.5393 19.2626 25.2987 19.1116 26.0072 18.8183C26.7157 18.5251 27.3594 18.0952 27.9017 17.5533C28.4439 17.0114 28.874 16.368 29.1675 15.66C29.4609 14.952 29.6119 14.1931 29.6117 13.4268ZM19.6304 13.4268C19.6305 12.6083 19.8736 11.8082 20.3288 11.1277C20.784 10.4472 21.4309 9.91679 22.1878 9.60363C22.9447 9.29047 23.7775 9.2086 24.581 9.36839C25.3845 9.52818 26.1225 9.92245 26.7017 10.5013C27.2808 11.0802 27.6752 11.8176 27.835 12.6204C27.9948 13.4232 27.9127 14.2553 27.5992 15.0115C27.2857 15.7677 26.7548 16.4141 26.0736 16.8689C25.3925 17.3236 24.5917 17.5664 23.7725 17.5664C23.2284 17.5664 22.6897 17.4593 22.1871 17.2512C21.6845 17.0432 21.2279 16.7382 20.8432 16.3538C20.4586 15.9694 20.1535 15.5131 19.9454 15.0109C19.7373 14.5086 19.6303 13.9704 19.6304 13.4268Z" fill="#754C29" stroke="#754C29" stroke-width="0.356352"/>
<path d="M46.7606 45.7794H46.7222C46.7261 45.833 46.7249 45.8872 46.7185 45.941C46.7022 46.0776 46.6529 46.2082 46.5748 46.3215C46.4967 46.4348 46.3922 46.5274 46.2703 46.5913C46.1484 46.6551 46.0128 46.6884 45.8752 46.6882M46.7606 45.7794L1.67079 46.51M46.7606 45.7794L46.6683 45.5377C46.6683 45.5375 46.6682 45.5374 46.6682 45.5373L41.203 31.2205L41.203 31.2204C41.1416 31.0599 41.0329 30.9219 40.8914 30.8245C40.7499 30.7271 40.5821 30.6749 40.4102 30.6748H40.4102H30.3861C30.3934 30.663 30.4006 30.6513 30.4077 30.6397L30.4081 30.6389C34.3956 24.0423 36.4169 18.2493 36.388 13.4293L46.7606 45.7794ZM45.8752 46.6882L45.8755 46.51V46.6882H45.8752ZM45.8752 46.6882H1.67109M1.67109 46.6882L1.67079 46.51M1.67109 46.6882H1.67079V46.51M1.67109 46.6882C1.53346 46.6884 1.39783 46.6551 1.27594 46.5913C1.15404 46.5274 1.04953 46.4348 0.971442 46.3215L0.97144 46.3215C0.893353 46.2082 0.844033 46.0776 0.827764 45.941C0.811508 45.8044 0.828738 45.666 0.877955 45.5377L1.67079 46.51M6.34257 31.2205L0.878075 45.5373L35.2639 8.6737C34.6392 7.16581 33.7233 5.79565 32.5686 4.64144C31.4139 3.48724 30.043 2.5716 28.5342 1.9468C27.0254 1.322 25.4081 1.00028 23.7749 1C22.1416 0.999724 20.5243 1.3209 19.0153 1.94519C17.5062 2.56948 16.135 3.48466 14.98 4.63847C13.8249 5.79229 12.9085 7.16214 12.2833 8.66982C11.658 10.1775 11.336 11.7935 11.3357 13.4255L11.1576 13.4244C11.1576 13.4246 11.1576 13.4248 11.1576 13.4249C11.1287 18.2491 13.1499 24.043 17.1374 30.6389L17.1375 30.639C17.1447 30.651 17.152 30.6629 17.1592 30.6748H7.1354H7.13533C6.96349 30.6749 6.79571 30.7271 6.65417 30.8245C6.51261 30.9219 6.40397 31.0599 6.34261 31.2204L6.34257 31.2205ZM30.0311 27.8901C27.6354 32.1791 24.9732 35.6977 23.7731 37.2114C22.573 35.6983 19.9108 32.1807 17.515 27.8917C15.0187 23.4226 12.8265 18.1419 12.8551 13.4277L12.6811 13.4267L12.8551 13.4267C12.8551 13.4267 12.8551 13.4267 12.8551 13.4266C12.8554 11.994 13.138 10.5754 13.6869 9.25195C14.2358 7.92844 15.0402 6.72592 16.0542 5.71304C17.0682 4.70016 18.272 3.89676 19.5967 3.34872C20.9214 2.80068 22.3412 2.51873 23.775 2.51898C25.2088 2.51923 26.6285 2.80166 27.9531 3.35016C29.2776 3.89865 30.4811 4.70247 31.4947 5.7157C32.5084 6.72893 33.3124 7.93173 33.8608 9.25543C34.4093 10.5791 34.6914 11.9978 34.6912 13.4304L34.6912 13.4315C34.7196 18.1417 32.5275 23.4211 30.0311 27.8901ZM18.2223 32.3691C19.6739 34.6299 21.2522 36.8068 22.9496 38.8895L22.9438 38.891L23.1248 39.1035L23.1268 39.1059C23.2065 39.1995 23.3055 39.2747 23.4171 39.3262C23.5287 39.3778 23.6502 39.4045 23.7731 39.4045C23.8961 39.4045 24.0175 39.3778 24.1292 39.3262C24.2407 39.2747 24.3398 39.1995 24.4195 39.1059L24.4215 39.1035C26.1854 36.9565 27.8221 34.7082 29.3233 32.3703H39.825L40.5744 34.3343L19.9159 41.676L12.7476 32.3691H18.2223ZM15.6498 44.992L19.861 43.4944H19.8648L19.8937 43.4841L32.2714 39.0868L36.8196 44.992H15.6498ZM2.90261 44.9916L7.72049 32.3691H10.6056L18.2337 42.2735L10.5855 44.9916H2.90261ZM44.6444 44.992H38.9631L33.9527 38.487L41.1812 35.9183L44.6444 44.992Z" fill="#754C29" stroke="#fff" stroke-width="0.356352"/>
</svg>
