<svg width="30" height="30" viewBox="0 0 30 30" fill="none" xmlns="http://www.w3.org/2000/svg">
<path d="M7.48576 2.17831C7.20685 1.94001 6.79514 1.94323 6.51998 2.18581L4.50787 3.98681V3.75079C4.50787 3.47464 4.28409 3.25081 4.008 3.25081C3.7319 3.25081 3.50812 3.47464 3.50812 3.75079V4.8823L2.67474 5.62832C2.4721 5.81318 2.45623 6.12683 2.63918 6.33127C2.82213 6.5357 3.13554 6.55445 3.34157 6.37334L7.00732 3.09132L10.6731 6.37334C10.8058 6.49445 10.9934 6.535 11.1643 6.47951C11.3352 6.42402 11.4632 6.28105 11.4995 6.10498C11.5358 5.92896 11.4749 5.74697 11.3399 5.62832L7.48576 2.17831Z" fill="black" fill-opacity="0.6"/>
<path d="M10.0074 6.99927C9.73133 6.99927 9.50755 7.2231 9.50755 7.49925V10.9992H4.50854V7.49925C4.50854 7.2231 4.28476 6.99927 4.00867 6.99927C3.73257 6.99927 3.50879 7.2231 3.50879 7.49925V11.3168C3.51371 11.6985 3.827 12.004 4.20866 11.9993H9.80749C10.1894 12.0031 10.5024 11.6972 10.5074 11.3152V7.49925C10.5073 7.2231 10.2835 6.99927 10.0074 6.99927Z" fill="black" fill-opacity="0.6"/>
<path d="M7.00805 12.9998C5.07544 12.9998 3.50879 14.5668 3.50879 16.4998C3.50879 18.4327 5.0755 19.9997 7.00805 19.9997C8.9406 19.9997 10.5073 18.4327 10.5073 16.4998C10.5051 14.5677 8.93972 13.0019 7.00805 12.9998ZM4.50854 16.4998C4.51007 15.3122 5.34515 14.2889 6.50811 14.0498V16.2163L4.65851 17.3258C4.56168 17.061 4.51095 16.7816 4.50854 16.4998ZM5.17368 18.1831L6.93054 17.1288L8.38425 18.5828C7.36299 19.2642 5.99675 19.0941 5.17368 18.1831ZM9.09109 17.8758L7.50792 16.2927V14.0498C8.32174 14.2147 9.00023 14.7738 9.3178 15.5412C9.63532 16.3086 9.55037 17.1838 9.09109 17.8758Z" fill="black" fill-opacity="0.6"/>
<path d="M27.0051 9.00046V7.28894C27.0048 6.85358 26.652 6.50073 26.2168 6.50044H24.794C24.3588 6.50073 24.006 6.85358 24.0057 7.28894V9.00046H23.0059V5.86546C23.0054 5.38798 22.6185 5.00102 22.1411 5.00044H20.8713C20.394 5.00102 20.0071 5.38798 20.0065 5.86546V9.00046H19.0068V3.50043C19.0068 2.94813 18.5591 2.50041 18.0069 2.50041H17.0071C16.4549 2.50041 16.0073 2.94813 16.0073 3.50043V9.00046H15.5074C15.2313 9.00046 15.0076 8.77658 15.0076 8.50048V2.50047C15.0076 2.22432 14.7837 2.00049 14.5077 2.00049C14.2317 2.00049 14.0078 2.22432 14.0078 2.50047V8.50048C14.0078 9.32888 14.6792 10.0005 15.5075 10.0005H27.0051C27.2812 10.0005 27.505 9.77666 27.505 9.5005C27.505 9.22435 27.2812 9.00046 27.0051 9.00046ZM18.0069 9.00046H17.0071V3.50043H18.0069V9.00046ZM22.0061 9.00046H21.0063V6.00046H22.0061V9.00046ZM26.0053 9.00046H25.0055V7.50046H26.0053V9.00046H26.0053Z" fill="black" fill-opacity="0.6"/>
<path d="M27.0051 19.0005H15.5074C15.2313 19.0005 15.0076 18.7766 15.0076 18.5005V17.7075L16.6537 16.061C16.8512 15.8714 17.1631 15.8714 17.3606 16.061L17.9464 16.647C18.5321 17.2326 19.4814 17.2326 20.067 16.647L22.1525 14.561C22.35 14.3714 22.6619 14.3714 22.8594 14.561L23.4453 15.1475C24.0315 15.7315 24.9795 15.7315 25.5658 15.1475L27.3585 13.3545C27.5479 13.1583 27.5452 12.8464 27.3524 12.6536C27.1595 12.4607 26.8477 12.458 26.6516 12.6475L24.8589 14.44C24.6638 14.6352 24.3473 14.6352 24.1521 14.44L23.5662 13.854C22.9728 13.2875 22.0391 13.2875 21.4457 13.854L19.3601 15.94C19.1649 16.1352 18.8485 16.1352 18.6533 15.94L18.0679 15.354C17.4744 14.7875 16.5404 14.7875 15.9469 15.354L15.0076 16.2935V12.5005C15.0076 12.2243 14.7837 12.0005 14.5077 12.0005C14.2317 12.0005 14.0078 12.2244 14.0078 12.5005V18.5005C14.0078 19.3289 14.6792 20.0005 15.5075 20.0005H27.0051C27.2812 20.0005 27.505 19.7766 27.505 19.5005C27.505 19.2243 27.2812 19.0005 27.0051 19.0005Z" fill="black" fill-opacity="0.6"/>
<path d="M29.9969 23.227V2.77249C30.0664 1.31854 28.9505 0.0806838 27.4974 0H2.5026C1.04954 0.0807423 -0.0664354 1.3186 0.00310099 2.77249V23.227C-0.0666697 24.6811 1.04931 25.9193 2.5026 26H10.5009V27.0001H8.50136C7.39704 27.0001 6.5018 27.8955 6.5018 29V29.5C6.5018 29.7762 6.72558 30 7.00167 30H22.9984C23.2745 30 23.4983 29.7762 23.4983 29.5V29C23.4983 27.8955 22.603 27.0001 21.4987 27.0001H19.4991V26H27.4975C28.9507 25.9193 30.0667 24.6811 29.9969 23.227ZM21.4986 28.0001C22.0508 28.0001 22.4985 28.4478 22.4985 29.0001H7.50155C7.50155 28.4478 7.94917 28.0001 8.50136 28.0001H21.4986ZM11.5007 27.0001V26H18.4993V27.0001H11.5007ZM27.4974 25.0001H2.5026C1.60273 24.9175 0.935311 24.1284 1.00291 23.2271V22.0001H28.9971V23.2271C29.0647 24.1284 28.3973 24.9175 27.4974 25.0001ZM28.9971 2.77249V21H1.00291V2.77249C0.935311 1.87125 1.60279 1.08235 2.5026 0.999963H27.4975C28.3972 1.08235 29.0647 1.87125 28.9971 2.77249Z" fill="black" fill-opacity="0.6"/>
</svg>
