<svg width="32" height="32" viewBox="0 0 32 32" fill="none" xmlns="http://www.w3.org/2000/svg">
<path d="M8.56127 3.09395L8.56125 3.09398L12.4146 6.54331C12.4148 6.54342 12.4149 6.54353 12.415 6.54365C12.5803 6.68917 12.6548 6.91217 12.6103 7.12785C12.5658 7.34375 12.4089 7.51911 12.1992 7.58717M8.56127 3.09395L12.1643 7.47951M8.56127 3.09395L8.55928 3.09226C8.23752 2.81734 7.76256 2.82106 7.44513 3.10091L7.44513 3.10091L7.44449 3.10147L5.62083 4.7338M8.56127 3.09395L5.62106 4.8855M12.1992 7.58717L12.1643 7.47951M12.1992 7.58717C12.1992 7.58717 12.1992 7.58716 12.1992 7.58716L12.1643 7.47951M12.1992 7.58717C11.9898 7.65517 11.76 7.60557 11.5972 7.45733L11.5976 7.45766L11.6731 7.37334M12.1643 7.47951C11.9934 7.535 11.8058 7.49445 11.6731 7.37334M11.6731 7.37334L11.5968 7.45695M11.6731 7.37334L11.5968 7.45695M11.5968 7.45695L8.00732 4.24324M11.5968 7.45695L8.00732 4.09132M8.00732 4.24324L8.08282 4.17565L8.00732 4.09132M8.00732 4.24324L7.93182 4.17565L8.00732 4.09132M8.00732 4.24324L4.41707 7.45766L4.4163 7.45835L4.4163 7.45835C4.16362 7.68047 3.77921 7.65748 3.55483 7.40675C3.33049 7.15606 3.34994 6.77142 3.59845 6.5447L3.59924 6.54398L3.59924 6.54398L4.39493 5.83171M8.00732 4.09132L4.34157 7.37334C4.13554 7.55445 3.82213 7.5357 3.63918 7.33127C3.45623 7.12683 3.4721 6.81318 3.67474 6.62832L4.50812 5.8823M4.39493 5.83171V5.8823H4.50812M4.39493 5.83171L4.43263 5.79797L4.50812 5.8823M4.39493 5.83171V4.75079C4.39493 4.41215 4.66937 4.13763 5.008 4.13763C5.34094 4.13763 5.61183 4.40302 5.62083 4.7338M4.50812 5.8823V4.75079C4.50812 4.47464 4.7319 4.25081 5.008 4.25081C5.28409 4.25081 5.50787 4.47464 5.50787 4.75079V4.83491L5.60184 4.75079L5.62083 4.7338M5.62083 4.7338C5.62098 4.73945 5.62106 4.74511 5.62106 4.75079V4.8855M5.62106 4.8855L7.51998 3.18581L5.62106 4.8855Z" fill="#754C29" stroke="#754C29" stroke-width="0.226373"/>
<path d="M10.3944 11.8861V8.49925C10.3944 8.16061 10.6688 7.88608 11.0074 7.88608C11.346 7.88608 11.6205 8.1606 11.6206 8.49923V8.49925V12.3152V12.3167H11.6205C11.6148 12.7608 11.251 13.1166 10.8069 13.1125M10.3944 11.8861L10.8075 12.9993M10.3944 11.8861H5.62173M10.3944 11.8861H5.62173M10.8069 13.1125C10.8067 13.1125 10.8065 13.1124 10.8063 13.1124L10.8075 12.9993M10.8069 13.1125H10.8075V12.9993M10.8069 13.1125H5.20936M10.8075 12.9993H5.20866M5.20936 13.1125C5.20959 13.1124 5.20983 13.1124 5.21007 13.1124L5.20866 12.9993M5.20936 13.1125C4.76552 13.1176 4.40133 12.7622 4.39561 12.3182L4.39559 12.3168H4.3956V8.49925C4.3956 8.16061 4.67004 7.88608 5.00867 7.88608C5.3473 7.88608 5.62173 8.16061 5.62173 8.49925V11.8861M5.20936 13.1125H5.20866V12.9993M5.20866 12.9993C4.827 13.004 4.51371 12.6985 4.50879 12.3168L5.62173 11.8861" fill="#754C29" stroke="#754C29" stroke-width="0.226373"/>
<path d="M10.0704 18.695C10.4434 18.0547 10.4985 17.2741 10.2132 16.5845L10.0704 18.695ZM10.0704 18.695L8.62111 17.2459V15.1923C9.33731 15.3816 9.92787 15.895 10.2132 16.5845L10.0704 18.695ZM8.00817 13.8866H8.00805C6.0129 13.8866 4.3956 15.5043 4.3956 17.4998C4.3956 19.4952 6.01296 21.1129 8.00805 21.1129C10.0031 21.1129 11.6205 19.4952 11.6205 17.4998L11.6205 17.4996C11.6182 15.5052 10.0023 13.8888 8.00817 13.8866ZM5.62173 17.4993C5.62337 16.4125 6.35619 15.4699 7.39492 15.1927V17.1522L5.72128 18.1561C5.65727 17.9432 5.62368 17.7221 5.62173 17.4993ZM7.913 18.2713L9.20373 19.5623C8.28367 20.1017 7.11312 19.9559 6.35343 19.2072L7.913 18.2713Z" fill="#754C29" stroke="#754C29" stroke-width="0.226373"/>
<path d="M20.8933 6.86546V9.88728H20.1199V4.50043C20.1199 3.88564 19.6217 3.38722 19.0069 3.38722H18.0071C17.3924 3.38722 16.8941 3.88564 16.8941 4.50043V9.88728H16.5074C16.2939 9.88728 16.1208 9.7141 16.1208 9.50048V3.50047C16.1208 3.16182 15.8463 2.8873 15.5077 2.8873C15.1691 2.8873 14.8946 3.16182 14.8946 3.50047V9.50048C14.8946 10.3914 15.6167 11.1137 16.5075 11.1137H28.0051C28.3438 11.1137 28.6182 10.8391 28.6182 10.5005C28.6182 10.2005 28.4028 9.95082 28.1183 9.8977V8.28894V8.28886C28.1179 7.79108 27.7146 7.38759 27.2168 7.38725H27.2168L25.794 7.38725L25.794 7.38725C25.2962 7.38759 24.8929 7.79108 24.8925 8.28886V8.28894V9.88728H24.1191V6.86546V6.86533C24.1185 6.32545 23.681 5.88791 23.1412 5.88725H23.1411H21.8713H21.8712C21.3314 5.88791 20.894 6.32546 20.8933 6.86532V6.86546ZM18.8938 9.88728H18.1203V4.61362H18.8938V9.88728ZM22.893 9.88728H22.1195V7.11364H22.893V9.88728ZM26.8921 9.88728H26.1187V8.61365H26.8921V9.88728Z" fill="#754C29" stroke="#754C29" stroke-width="0.226373"/>
<path d="M16.8668 16.274L16.1208 17.0202V13.5005C16.1208 13.1618 15.8463 12.8873 15.5077 12.8873C15.1691 12.8873 14.8946 13.1619 14.8946 13.5005V19.5005C14.8946 20.3914 15.6167 21.1137 16.5075 21.1137H28.0051C28.3438 21.1137 28.6182 20.8391 28.6182 20.5005V20.5005C28.6181 20.1618 28.3437 19.8873 28.0051 19.8873H16.5074C16.2939 19.8873 16.1208 19.7142 16.1208 19.5005V18.7544L17.7329 17.1419C17.8863 16.9953 18.1279 16.9953 18.2814 17.1419L18.8664 17.727L18.8664 17.727C19.4962 18.3568 20.5172 18.3568 21.147 17.727L21.147 17.727L23.2317 15.6419C23.3852 15.4953 23.6267 15.4953 23.7802 15.6419L24.3652 16.2275L24.3654 16.2277C24.9958 16.8556 26.0152 16.8556 26.6457 16.2277L26.6458 16.2275L28.4385 14.4345L28.4385 14.4345L28.4399 14.4331C28.6722 14.1925 28.6689 13.8101 28.4324 13.5735C28.1959 13.337 27.8135 13.3337 27.573 13.5661L27.5716 13.5674L25.7789 15.36C25.6279 15.5109 25.3831 15.5109 25.2321 15.36C25.2321 15.36 25.2321 15.36 25.2321 15.36L24.6463 14.774L24.6463 14.7739L24.6444 14.7721C24.0072 14.1639 23.0046 14.1639 22.3675 14.7721L22.3675 14.7721L22.3656 14.774L20.2801 16.86C20.2801 16.86 20.2801 16.86 20.2801 16.86C20.1291 17.0109 19.8843 17.0109 19.7333 16.86L19.148 16.274L19.148 16.274L19.1461 16.2721C18.5088 15.6638 17.506 15.6638 16.8687 16.2721L16.8687 16.2721L16.8668 16.274Z" fill="#754C29" stroke="#754C29" stroke-width="0.226373"/>
<path d="M3.5026 27.1132H11.3877V27.8869H9.50136C8.33451 27.8869 7.38861 28.833 7.38861 30V30.5C7.38861 30.8387 7.66304 31.1132 8.00167 31.1132H23.9984C24.337 31.1132 24.6114 30.8387 24.6114 30.5V30C24.6114 28.833 23.6656 27.8869 22.4987 27.8869H20.6123V27.1132H28.4975V27.1134L28.5037 27.113C30.0182 27.029 31.1813 25.7393 31.1101 24.2243V3.77519C31.1811 2.26033 30.0179 0.971069 28.5037 0.886987L28.5037 0.886813H28.4974H3.5026V0.886639L3.49632 0.886988C1.98208 0.97113 0.818935 2.26037 0.889914 3.77516V24.2243C0.818696 25.7394 1.98184 27.0289 3.49633 27.113L3.49632 27.1132H3.5026ZM2.1161 23.1132H29.884V24.2271H29.8836L29.8843 24.2355C29.9471 25.0736 29.3279 25.8074 28.4921 25.8869H3.50789C2.67212 25.8074 2.05293 25.0736 2.11578 24.2355L2.1161 24.2356V24.2271V23.1132ZM29.8842 3.76401L29.8839 3.76399V3.77249V21.8869H2.1161V3.77249H2.11642L2.11578 3.76402C2.05293 2.92607 2.67216 2.19239 3.50786 2.11315H28.4922C29.3278 2.19239 29.9471 2.92607 29.8842 3.76401ZM22.4986 29.1133C22.95 29.1133 23.3225 29.4506 23.3781 29.8869H8.62189C8.67746 29.4506 9.05004 29.1133 9.50136 29.1133H22.4986ZM12.6139 27.8869V27.1132H19.3861V27.8869H12.6139Z" fill="#754C29" stroke="#754C29" stroke-width="0.226373"/>
</svg>
