<svg width="30" height="24" viewBox="0 0 30 24" fill="none" xmlns="http://www.w3.org/2000/svg">
<path d="M28.6589 17.1587L26.844 16.6401C26.7656 16.6178 26.7109 16.5452 26.7109 16.4637V15.8579C26.8586 15.7556 26.9994 15.6411 27.1311 15.5133C27.7692 14.8941 28.1205 14.0635 28.1205 13.1746V12.3386L28.296 11.9877C28.4886 11.6024 28.5904 11.1711 28.5904 10.7405V8.4758C28.5904 8.23311 28.3937 8.03635 28.151 8.03635H23.9221C22.3843 8.03635 21.1332 9.28744 21.1332 10.8252V10.8514C21.1332 11.2095 21.2179 11.5681 21.378 11.8884L21.6031 12.3385V13.0563C21.6031 14.1938 22.1637 15.2145 23.0128 15.8287L23.0129 16.4636C23.0129 16.5615 23.0129 16.6021 22.65 16.7058L21.7644 16.9588L19.2026 16.0272C19.2118 15.9064 19.1711 15.7834 19.0829 15.6908L18.2643 14.8308V13.387C18.3508 13.3157 18.4361 13.2425 18.5188 13.165C19.5515 12.197 20.1438 10.8304 20.1438 9.41553V8.26252C20.4556 7.58395 20.6136 6.86588 20.6136 6.12637V1.42773C20.6136 1.18504 20.4169 0.988281 20.1742 0.988281H13.5959C11.2809 0.988281 9.3975 2.87172 9.3975 5.1867V6.12648C9.3975 6.866 9.55553 7.58406 9.86736 8.26264V9.25469C9.86736 10.8974 10.5978 12.3774 11.7469 13.3531V14.8308L10.9283 15.6909C10.8401 15.7835 10.7993 15.9064 10.8085 16.0273L8.10469 17.0104C7.90875 17.0817 7.7267 17.1782 7.56141 17.2951L7.13684 17.0828C8.4007 16.5327 8.80107 15.7589 8.82029 15.7205C8.88217 15.5968 8.88217 15.4512 8.82029 15.3275C8.50348 14.6938 8.4651 13.5324 8.43428 12.5993C8.42402 12.2886 8.4143 11.9951 8.39572 11.7338C8.2459 9.62594 6.64348 8.03635 4.66828 8.03635C2.69309 8.03635 1.09061 9.62588 0.94084 11.7338C0.922266 11.9952 0.912539 12.2887 0.902285 12.5994C0.871465 13.5325 0.833027 14.6938 0.51627 15.3274C0.454395 15.4511 0.454395 15.5968 0.51627 15.7204C0.535488 15.7589 0.935039 16.531 2.20143 17.0818L1.02211 17.6714C0.391641 17.9869 0 18.6206 0 19.3254V22.5721C0 22.8147 0.196758 23.0115 0.439453 23.0115C0.682148 23.0115 0.878906 22.8147 0.878906 22.5721V19.3254C0.878906 18.9556 1.08439 18.6231 1.41516 18.4577L2.88369 17.7234L3.39451 18.2089C3.7517 18.5483 4.2099 18.7179 4.66828 18.7179C5.12654 18.7179 5.58498 18.5482 5.94205 18.2089L6.45281 17.7235L6.93164 17.9629C6.70617 18.3237 6.5782 18.7467 6.5782 19.1898V22.5722C6.5782 22.8149 6.77496 23.0116 7.01766 23.0116C7.26035 23.0116 7.45711 22.8149 7.45711 22.5722V19.1898C7.45711 18.5866 7.83803 18.0427 8.40504 17.8365L11.2557 16.7999L12.4424 18.5801C12.5941 18.8076 12.8372 18.9536 13.1094 18.9805C13.1398 18.9835 13.1699 18.985 13.2001 18.985C13.4402 18.985 13.6702 18.8905 13.8421 18.7186L14.5661 17.9946V22.5722C14.5661 22.8149 14.7628 23.0117 15.0055 23.0117C15.2482 23.0117 15.445 22.8149 15.445 22.5722V17.9946L16.1689 18.7186C16.3408 18.8905 16.5708 18.9851 16.811 18.9851C16.841 18.9851 16.8713 18.9836 16.9015 18.9806C17.1738 18.9537 17.4169 18.8077 17.5686 18.5801L18.7553 16.8L21.606 17.8366C22.1729 18.0428 22.5539 18.5867 22.5539 19.19V22.5723C22.5539 22.815 22.7507 23.0117 22.9934 23.0117C23.2361 23.0117 23.4328 22.815 23.4328 22.5723V19.19C23.4328 18.5789 23.1901 18.0059 22.7828 17.5821L22.8914 17.5511C23.0009 17.5198 23.1503 17.477 23.3003 17.4034L24.4223 18.5254V22.5723C24.4223 22.815 24.6191 23.0117 24.8618 23.0117C25.1045 23.0117 25.3013 22.815 25.3013 22.5723V18.5254L26.4155 17.4112C26.4747 17.4413 26.5369 17.4668 26.6024 17.4855L28.4174 18.004C28.8317 18.1224 29.1211 18.506 29.1211 18.9369V22.5723C29.1211 22.815 29.3179 23.0117 29.5605 23.0117C29.8032 23.0117 30 22.815 30 22.5723V18.9369C30 18.1155 29.4485 17.3843 28.6589 17.1587ZM2.81924 16.3825C1.99723 16.0867 1.5849 15.6924 1.40889 15.4771C1.52889 15.1633 1.6067 14.804 1.65937 14.4248C1.90172 15.0058 2.3076 15.5019 2.81924 15.8558V16.3825ZM5.33672 17.5718C4.96189 17.928 4.37473 17.9279 4.00002 17.5718L3.59133 17.1834C3.66029 17.0542 3.6982 16.9077 3.6982 16.7543V16.2859C4.00477 16.3817 4.33066 16.4334 4.6684 16.4334C5.00572 16.4334 5.33145 16.3814 5.63854 16.2862L5.63848 16.7542C5.63848 16.9077 5.67633 17.0543 5.74535 17.1835L5.33672 17.5718ZM4.66852 15.5545C3.35625 15.5545 2.28873 14.4869 2.28873 13.1747C2.28873 12.932 2.09197 12.7352 1.84928 12.7352C1.82467 12.7352 1.80064 12.7377 1.77715 12.7417C1.77844 12.7039 1.77967 12.666 1.78096 12.6286C1.79074 12.3264 1.80018 12.041 1.81758 11.7962C1.87371 11.0066 2.18924 10.279 2.70604 9.74729C3.22746 9.2108 3.92438 8.91537 4.6684 8.91537C5.41242 8.91537 6.10928 9.2108 6.63076 9.74729C7.14756 10.279 7.46309 11.0066 7.51922 11.7962C7.53656 12.0409 7.54605 12.3263 7.55602 12.6284C7.55689 12.6544 7.55777 12.6807 7.55865 12.7068C7.08053 11.9702 6.34213 11.4273 5.38805 11.1207C4.50662 10.8375 3.74854 10.8551 3.71654 10.8559C3.60146 10.8591 3.49225 10.9073 3.41238 10.9901L2.61949 11.8124C2.45104 11.9871 2.45607 12.2654 2.6308 12.4338C2.80553 12.6023 3.08373 12.5972 3.25219 12.4225L3.91195 11.7383C4.48014 11.7661 6.30809 11.9787 7.019 13.5441C6.84012 14.6977 5.84859 15.5545 4.66852 15.5545ZM6.51732 16.384L6.51738 15.8598C7.02861 15.5079 7.43508 15.0128 7.6776 14.4273C7.73027 14.8057 7.80803 15.1642 7.92779 15.4772C7.75277 15.6904 7.33852 16.0883 6.51732 16.384ZM10.7463 9.25463V8.16432C10.7463 8.09816 10.7313 8.03283 10.7026 7.97324C10.4198 7.38766 10.2764 6.76633 10.2764 6.12648V5.18676C10.2764 3.35635 11.7656 1.86725 13.5959 1.86725H19.7347V6.12654C19.7347 6.76639 19.5913 7.38771 19.3086 7.9733C19.2798 8.03289 19.2649 8.09822 19.2649 8.16437V9.41564C19.2649 10.6057 18.7864 11.7096 17.9177 12.5239C17.8093 12.6255 17.6967 12.7207 17.5804 12.8095C17.5778 12.8113 17.5753 12.8132 17.5728 12.815C16.759 13.4329 15.7622 13.7332 14.7212 13.6657C12.4922 13.5214 10.7463 11.5838 10.7463 9.25463ZM13.2206 18.0971C13.2176 18.1001 13.2105 18.1073 13.1961 18.1058C13.1818 18.1044 13.1762 18.096 13.1738 18.0924L11.8071 16.0423L12.2469 15.5802L14.3203 16.9974L13.2206 18.0971ZM15.0056 16.4012L12.6258 14.7745V13.9542C13.2415 14.2871 13.931 14.4953 14.6643 14.5427C14.7802 14.5502 14.8953 14.5539 15.0101 14.5539C15.8504 14.5539 16.6591 14.353 17.3854 13.9718V14.7745L15.0056 16.4012ZM16.8373 18.0925C16.8349 18.0961 16.8293 18.1045 16.815 18.1059C16.8006 18.1077 16.7936 18.1002 16.7905 18.0972L15.6909 16.9976L17.7642 15.5803L18.2041 16.0424L16.8373 18.0925ZM24.8618 17.7217L23.8645 16.7245C23.8819 16.6455 23.8918 16.5589 23.8917 16.4635L23.8917 16.278C24.1684 16.3688 24.4601 16.4228 24.7619 16.4318C24.7958 16.4328 24.8293 16.4333 24.8631 16.4333C25.1966 16.4333 25.5221 16.3829 25.832 16.2868V16.4637C25.832 16.5514 25.843 16.6373 25.8637 16.7198L24.8618 17.7217ZM26.519 14.8826C26.0532 15.3346 25.4379 15.5733 24.7883 15.5533C23.5166 15.5151 22.482 14.395 22.482 13.0564V12.2349C22.482 12.1666 22.4661 12.0994 22.4356 12.0384L22.1641 11.4954C22.0647 11.2965 22.0121 11.0738 22.0121 10.8514V10.8252C22.0121 9.77207 22.869 8.91531 23.9221 8.91531H27.7115V10.7405C27.7115 11.0355 27.6418 11.3308 27.5099 11.5947L27.288 12.0384C27.2575 12.0994 27.2416 12.1666 27.2416 12.2349V13.1746C27.2416 13.8238 26.985 14.4304 26.519 14.8826Z" fill="black" fill-opacity="0.6"/>
</svg>
